<svg width="16" height="17" viewBox="0 0 16 17" fill="none" xmlns="http://www.w3.org/2000/svg">
<path fill-rule="evenodd" clip-rule="evenodd" d="M13.7776 7.10291H1.89496C1.61896 7.10291 1.39496 6.87891 1.39496 6.60291C1.39496 6.32691 1.61896 6.10291 1.89496 6.10291H13.7776C14.0536 6.10291 14.2776 6.32691 14.2776 6.60291C14.2776 6.87891 14.0536 7.10291 13.7776 7.10291Z" fill="#DF4D6F"/>
<path fill-rule="evenodd" clip-rule="evenodd" d="M10.8008 9.70642C10.5248 9.70642 10.2981 9.48242 10.2981 9.20642C10.2981 8.93042 10.5188 8.70642 10.7948 8.70642H10.8008C11.0768 8.70642 11.3008 8.93042 11.3008 9.20642C11.3008 9.48242 11.0768 9.70642 10.8008 9.70642Z" fill="#DF4D6F"/>
<path fill-rule="evenodd" clip-rule="evenodd" d="M7.84245 9.70642C7.56645 9.70642 7.33978 9.48242 7.33978 9.20642C7.33978 8.93042 7.56045 8.70642 7.83645 8.70642H7.84245C8.11845 8.70642 8.34245 8.93042 8.34245 9.20642C8.34245 9.48242 8.11845 9.70642 7.84245 9.70642Z" fill="#DF4D6F"/>
<path fill-rule="evenodd" clip-rule="evenodd" d="M4.87791 9.70642C4.60191 9.70642 4.37457 9.48242 4.37457 9.20642C4.37457 8.93042 4.59591 8.70642 4.87191 8.70642H4.87791C5.15391 8.70642 5.37791 8.93042 5.37791 9.20642C5.37791 9.48242 5.15391 9.70642 4.87791 9.70642Z" fill="#DF4D6F"/>
<path fill-rule="evenodd" clip-rule="evenodd" d="M10.8008 12.2975C10.5248 12.2975 10.2981 12.0735 10.2981 11.7975C10.2981 11.5215 10.5188 11.2975 10.7948 11.2975H10.8008C11.0768 11.2975 11.3008 11.5215 11.3008 11.7975C11.3008 12.0735 11.0768 12.2975 10.8008 12.2975Z" fill="#DF4D6F"/>
<path fill-rule="evenodd" clip-rule="evenodd" d="M7.84245 12.2975C7.56645 12.2975 7.33978 12.0735 7.33978 11.7975C7.33978 11.5215 7.56045 11.2975 7.83645 11.2975H7.84245C8.11845 11.2975 8.34245 11.5215 8.34245 11.7975C8.34245 12.0735 8.11845 12.2975 7.84245 12.2975Z" fill="#DF4D6F"/>
<path fill-rule="evenodd" clip-rule="evenodd" d="M4.87791 12.2975C4.60191 12.2975 4.37457 12.0735 4.37457 11.7975C4.37457 11.5215 4.59591 11.2975 4.87191 11.2975H4.87791C5.15391 11.2975 5.37791 11.5215 5.37791 11.7975C5.37791 12.0735 5.15391 12.2975 4.87791 12.2975Z" fill="#DF4D6F"/>
<path fill-rule="evenodd" clip-rule="evenodd" d="M10.529 4.36069C10.253 4.36069 10.029 4.13669 10.029 3.86069V1.66669C10.029 1.39069 10.253 1.16669 10.529 1.16669C10.805 1.16669 11.029 1.39069 11.029 1.66669V3.86069C11.029 4.13669 10.805 4.36069 10.529 4.36069Z" fill="#DF4D6F"/>
<path fill-rule="evenodd" clip-rule="evenodd" d="M5.14349 4.36069C4.86749 4.36069 4.64349 4.13669 4.64349 3.86069V1.66669C4.64349 1.39069 4.86749 1.16669 5.14349 1.16669C5.41949 1.16669 5.64349 1.39069 5.64349 1.66669V3.86069C5.64349 4.13669 5.41949 4.36069 5.14349 4.36069Z" fill="#DF4D6F"/>
<mask id="mask0_6653_49328" style="mask-type:alpha" maskUnits="userSpaceOnUse" x="1" y="2" width="14" height="14">
<path fill-rule="evenodd" clip-rule="evenodd" d="M1.33331 2.21942H14.3333V15.5H1.33331V2.21942Z" fill="white"/>
</mask>
<g mask="url(#mask0_6653_49328)">
<path fill-rule="evenodd" clip-rule="evenodd" d="M5.01398 3.21942C3.28531 3.21942 2.33331 4.14142 2.33331 5.81542V11.8481C2.33331 13.5588 3.28531 14.5001 5.01398 14.5001H10.6526C12.3813 14.5001 13.3333 13.5761 13.3333 11.8988V5.81542C13.336 4.99209 13.1146 4.35209 12.6753 3.91209C12.2233 3.45875 11.5266 3.21942 10.6586 3.21942H5.01398ZM10.6526 15.5001H5.01398C2.74398 15.5001 1.33331 14.1008 1.33331 11.8481V5.81542C1.33331 3.59675 2.74398 2.21942 5.01398 2.21942H10.6586C11.798 2.21942 12.74 2.56075 13.3833 3.20542C14.008 3.83275 14.3366 4.73475 14.3333 5.81675V11.8988C14.3333 14.1201 12.9226 15.5001 10.6526 15.5001Z" fill="#DF4D6F"/>
</g>
</svg>
