<svg width="19" height="18" viewBox="0 0 19 18" fill="none" xmlns="http://www.w3.org/2000/svg">
<path d="M16.9325 10.71C16.8267 10.6024 16.6821 10.5417 16.5312 10.5417C16.3803 10.5417 16.2357 10.6024 16.13 10.71L13.58 13.2675V6.51752C13.58 6.20686 13.3281 5.95502 13.0175 5.95502C12.7068 5.95502 12.455 6.20686 12.455 6.51752V13.2675L9.89747 10.71C9.75545 10.5667 9.54775 10.51 9.3526 10.5613C9.15744 10.6126 9.00449 10.7641 8.95135 10.9588C8.89821 11.1534 8.95295 11.3617 9.09497 11.505L12.62 15C12.6705 15.0526 12.732 15.0936 12.8 15.12C12.8686 15.1499 12.9426 15.1652 13.0175 15.165C13.0899 15.1653 13.1615 15.15 13.2275 15.12C13.2976 15.0935 13.3615 15.0526 13.415 15L16.9325 11.4825C17.1372 11.2657 17.1372 10.9268 16.9325 10.71V10.71Z" fill="#DF4D6F"/>
<path d="M9.10246 7.29C9.32464 7.51021 9.68278 7.51021 9.90496 7.29C10.1243 7.07039 10.1243 6.71462 9.90496 6.495L6.37996 3C6.32938 2.94741 6.26796 2.90646 6.19996 2.88C6.06229 2.82752 5.91013 2.82752 5.77246 2.88C5.70318 2.90826 5.63964 2.94893 5.58496 3L2.06746 6.495C1.84812 6.71462 1.84812 7.07039 2.06746 7.29C2.17192 7.39721 2.31527 7.45768 2.46496 7.45768C2.61465 7.45768 2.75799 7.39721 2.86246 7.29L5.41996 4.7325V11.4825C5.41996 11.6835 5.52717 11.8692 5.70121 11.9696C5.87525 12.0701 6.08967 12.0701 6.26371 11.9696C6.43775 11.8692 6.54496 11.6835 6.54496 11.4825V4.7325L9.10246 7.29Z" fill="#DF4D6F"/>
</svg>
