<svg width="24" height="24" viewBox="0 0 24 24" fill="none" xmlns="http://www.w3.org/2000/svg">
<g clip-path="url(#clip0_6652_49238)">
<path d="M18.5313 7.3125C18.5313 7.29509 18.5451 7.28125 18.5625 7.28125C18.5799 7.28125 18.5937 7.29509 18.5937 7.3125C18.5937 7.32991 18.5799 7.34375 18.5625 7.34375C18.5451 7.34375 18.5313 7.32991 18.5313 7.3125Z" fill="white" stroke="#DF4D6F" stroke-width="0.999998"/>
<path d="M21.6562 0H6.09375C4.80139 0 3.75 1.05139 3.75 2.34375V18.0938H0.46875C0.209839 18.0938 0 18.3036 0 18.5625V19.5C0 20.7924 1.05139 21.8438 2.34375 21.8438H12.4688V23.5312C12.4688 23.7209 12.583 23.8918 12.7581 23.9643C12.9333 24.0368 13.1349 23.9967 13.2689 23.8627L14.8125 22.3193L16.3561 23.8627C16.4901 23.9969 16.6917 24.0368 16.8669 23.9643C17.042 23.8918 17.1562 23.7209 17.1562 23.5312V21.8438H19.7812C21.0736 21.8438 22.125 20.7924 22.125 19.5V3.75H23.5312C23.7902 3.75 24 3.54016 24 3.28125V2.34375C24 1.05139 22.9486 0 21.6562 0V0ZM0.9375 19.5V19.0312H3.75V19.5C3.75 20.2755 3.1192 20.9062 2.34375 20.9062C1.5683 20.9062 0.9375 20.2755 0.9375 19.5ZM16.4998 18.6804C15.967 18.9131 15.3992 19.0312 14.8125 19.0312C14.2258 19.0312 13.6582 18.9131 13.1252 18.6804C11.5875 18.0086 10.5938 16.4905 10.5938 14.8125C10.5938 12.4863 12.4863 10.5938 14.8125 10.5938C17.1387 10.5938 19.0312 12.4863 19.0312 14.8125C19.0312 16.4905 18.0377 18.0086 16.4998 18.6804ZM16.2188 22.3995L15.1439 21.3248C14.9608 21.1417 14.6642 21.1417 14.4811 21.3248L13.4062 22.3995V19.7745C13.8609 19.9034 14.3317 19.9688 14.8125 19.9688C15.2935 19.9688 15.7641 19.9034 16.2188 19.7745V22.3995ZM21.1875 19.5C21.1875 20.2755 20.5567 20.9062 19.7812 20.9062H17.1562V19.4057C18.8743 18.5286 19.9688 16.7587 19.9688 14.8125C19.9688 11.9694 17.6558 9.65625 14.8125 9.65625C11.9694 9.65625 9.65625 11.9694 9.65625 14.8125C9.65625 16.7587 10.7507 18.5286 12.4688 19.4057V20.9062H4.21747C4.51245 20.5142 4.6875 20.0272 4.6875 19.5C4.6875 19.0849 4.6875 3.21954 4.6875 2.34375C4.6875 1.5683 5.3183 0.9375 6.09375 0.9375C6.8692 0.9375 7.5 1.5683 7.5 2.34375V3.28125C7.5 3.54016 7.70984 3.75 7.96875 3.75H21.1875V19.5ZM23.0625 2.8125H8.4375V2.34375C8.4375 1.81659 8.26245 1.32953 7.96765 0.9375H21.6562C22.4317 0.9375 23.0625 1.5683 23.0625 2.34375V2.8125Z" fill="#DF4D6F"/>
<path d="M17.2272 13.8331L15.8576 13.634L15.2447 12.3926C15.1658 12.2325 15.0029 12.1313 14.8245 12.1313C14.646 12.1313 14.483 12.2325 14.4041 12.3926L13.7913 13.634L12.4218 13.8331C12.2453 13.8587 12.0986 13.9823 12.0433 14.152C11.9882 14.3216 12.0342 14.508 12.162 14.6325L13.1531 15.5991L12.9191 16.9633C12.8891 17.139 12.9612 17.3168 13.1057 17.4216C13.25 17.5265 13.4413 17.5404 13.5994 17.4575L14.8245 16.8135L16.0497 17.4575C16.2081 17.5406 16.3994 17.5263 16.5433 17.4216C16.6876 17.3168 16.7599 17.139 16.7299 16.9633L16.4959 15.5991L17.4871 14.6325C17.6149 14.508 17.6608 14.3216 17.6055 14.152C17.5504 13.9823 17.4037 13.8587 17.2272 13.8331ZM15.6648 15.1C15.5544 15.2076 15.504 15.3627 15.53 15.5147L15.6452 16.1856L15.0426 15.8688C14.9743 15.8331 14.8994 15.8152 14.8245 15.8152C14.7496 15.8152 14.6747 15.8331 14.6064 15.8688L14.0038 16.1856L14.1188 15.5147C14.1448 15.3627 14.0945 15.2076 13.9841 15.1L13.4963 14.6243L14.1701 14.5265C14.3226 14.5041 14.4546 14.4084 14.5229 14.27L14.8245 13.6591L15.1261 14.27C15.1944 14.4084 15.3264 14.5041 15.4789 14.5265L16.1526 14.6243L15.6648 15.1Z" fill="#DF4D6F"/>
<path d="M6.5625 7.3125C6.5625 7.57141 6.77234 7.78125 7.03125 7.78125H16.6875C16.9464 7.78125 17.1562 7.57141 17.1562 7.3125C17.1562 7.05359 16.9464 6.84375 16.6875 6.84375H7.03125C6.77234 6.84375 6.5625 7.05359 6.5625 7.3125Z" fill="#DF4D6F"/>
<path d="M10.125 9.65625H7.03125C6.77234 9.65625 6.5625 9.86609 6.5625 10.125C6.5625 10.3839 6.77234 10.5938 7.03125 10.5938H10.125C10.3839 10.5938 10.5938 10.3839 10.5938 10.125C10.5938 9.86609 10.3839 9.65625 10.125 9.65625Z" fill="#DF4D6F"/>
<path d="M7.03125 13.4062H8.25C8.50891 13.4062 8.71875 13.1964 8.71875 12.9375C8.71875 12.6786 8.50891 12.4688 8.25 12.4688H7.03125C6.77234 12.4688 6.5625 12.6786 6.5625 12.9375C6.5625 13.1964 6.77234 13.4062 7.03125 13.4062Z" fill="#DF4D6F"/>
<path d="M7.03125 16.2188H8.25C8.50891 16.2188 8.71875 16.0089 8.71875 15.75C8.71875 15.4911 8.50891 15.2812 8.25 15.2812H7.03125C6.77234 15.2812 6.5625 15.4911 6.5625 15.75C6.5625 16.0089 6.77234 16.2188 7.03125 16.2188Z" fill="#DF4D6F"/>
<path d="M9.1875 18.0938H7.03125C6.77234 18.0938 6.5625 18.3036 6.5625 18.5625C6.5625 18.8214 6.77234 19.0312 7.03125 19.0312H9.1875C9.44641 19.0312 9.65625 18.8214 9.65625 18.5625C9.65625 18.3036 9.44641 18.0938 9.1875 18.0938Z" fill="#DF4D6F"/>
</g>
<defs>
<clipPath id="clip0_6652_49238">
<rect width="24" height="24" fill="white"/>
</clipPath>
</defs>
</svg>
