<svg width="111" height="110" viewBox="0 0 111 110" fill="none" xmlns="http://www.w3.org/2000/svg">
<circle cx="55.5" cy="55" r="55" fill="#FCEEF1"/>
<path fill-rule="evenodd" clip-rule="evenodd" d="M35.1544 44.1736C38.7199 35.612 47.074 30.0254 56.3484 30.0006C66.3438 29.948 75.2316 36.3504 78.3474 45.848C81.4632 55.3456 78.0952 65.7687 70.011 71.6473C61.9268 77.526 50.9731 77.5172 42.8983 71.6256L35.6984 78.8256C34.9663 79.5568 33.7804 79.5568 33.0484 78.8256C32.3172 78.0936 32.3172 76.9077 33.0484 76.1756L40.0234 69.2006C33.5081 62.6002 31.5889 52.7352 35.1544 44.1736ZM38.4973 60.423C41.491 67.6372 48.5377 72.3357 56.3484 72.3256V72.2256C66.9491 72.2121 75.5547 63.6511 75.6234 53.0506C75.6335 45.24 70.9349 38.1932 63.7207 35.1996C56.5065 32.2059 48.1992 33.8555 42.6762 39.3785C37.1532 44.9015 35.5036 53.2088 38.4973 60.423Z" fill="#DF4D6F"/>
</svg>
