<svg width="19" height="18" viewBox="0 0 19 18" fill="none" xmlns="http://www.w3.org/2000/svg">
<path d="M9.5 3C9.08579 3 8.75 3.33579 8.75 3.75C8.75 4.16421 9.08579 4.5 9.5 4.5V3ZM15.5 4.5C15.9142 4.5 16.25 4.16421 16.25 3.75C16.25 3.33579 15.9142 3 15.5 3V4.5ZM9.5 13.5C9.08579 13.5 8.75 13.8358 8.75 14.25C8.75 14.6642 9.08579 15 9.5 15V13.5ZM15.5 15C15.9142 15 16.25 14.6642 16.25 14.25C16.25 13.8358 15.9142 13.5 15.5 13.5V15ZM9.5 9.75C9.91421 9.75 10.25 9.41421 10.25 9C10.25 8.58579 9.91421 8.25 9.5 8.25V9.75ZM3.5 8.25C3.08579 8.25 2.75 8.58579 2.75 9C2.75 9.41421 3.08579 9.75 3.5 9.75L3.5 8.25ZM9.5 4.5L15.5 4.5V3L9.5 3V4.5ZM9.5 15H15.5V13.5H9.5V15ZM9.5 8.25L3.5 8.25L3.5 9.75L9.5 9.75V8.25ZM2.75 3.75C2.75 4.99264 3.75736 6 5 6V4.5C4.58579 4.5 4.25 4.16421 4.25 3.75H2.75ZM5 6C6.24264 6 7.25 4.99264 7.25 3.75H5.75C5.75 4.16421 5.41421 4.5 5 4.5V6ZM7.25 3.75C7.25 2.50736 6.24264 1.5 5 1.5V3C5.41421 3 5.75 3.33579 5.75 3.75H7.25ZM5 1.5C3.75736 1.5 2.75 2.50736 2.75 3.75H4.25C4.25 3.33579 4.58579 3 5 3V1.5ZM2.75 14.25C2.75 15.4926 3.75736 16.5 5 16.5V15C4.58579 15 4.25 14.6642 4.25 14.25H2.75ZM5 16.5C6.24264 16.5 7.25 15.4926 7.25 14.25H5.75C5.75 14.6642 5.41421 15 5 15V16.5ZM7.25 14.25C7.25 13.0074 6.24264 12 5 12V13.5C5.41421 13.5 5.75 13.8358 5.75 14.25H7.25ZM5 12C3.75736 12 2.75 13.0074 2.75 14.25H4.25C4.25 13.8358 4.58579 13.5 5 13.5V12ZM16.25 9C16.25 7.75736 15.2426 6.75 14 6.75V8.25C14.4142 8.25 14.75 8.58579 14.75 9H16.25ZM14 6.75C12.7574 6.75 11.75 7.75736 11.75 9H13.25C13.25 8.58579 13.5858 8.25 14 8.25V6.75ZM11.75 9C11.75 10.2426 12.7574 11.25 14 11.25V9.75C13.5858 9.75 13.25 9.41421 13.25 9H11.75ZM14 11.25C15.2426 11.25 16.25 10.2426 16.25 9H14.75C14.75 9.41421 14.4142 9.75 14 9.75V11.25Z" fill="#DF4D6F"/>
</svg>
