<svg width="14" height="14" viewBox="0 0 14 14" fill="none" xmlns="http://www.w3.org/2000/svg">
<path fill-rule="evenodd" clip-rule="evenodd" d="M9.13692 2.20107C8.1028 1.74029 6.94745 1.62615 5.84316 1.87564C4.73888 2.12514 3.74482 2.72492 3.00926 3.58553C2.2737 4.44614 1.83603 5.52146 1.76154 6.65113C1.68705 7.7808 1.97973 8.90429 2.59592 9.85403C3.21211 10.8038 4.1188 11.5289 5.18076 11.9212C6.24272 12.3136 7.40306 12.3521 8.48873 12.0311C9.57439 11.7101 10.5272 11.0468 11.2051 10.14C11.8829 9.23327 12.2495 8.13169 12.2502 6.99957V6.46323C12.2502 6.14107 12.5113 5.8799 12.8335 5.8799C13.1557 5.8799 13.4168 6.14107 13.4168 6.46323V6.9999C13.416 8.38361 12.968 9.73032 12.1395 10.8386C11.311 11.9468 10.1464 12.7576 8.81952 13.1499C7.4926 13.5422 6.0744 13.4951 4.77645 13.0156C3.47849 12.5361 2.37032 11.6498 1.6172 10.489C0.864075 9.32822 0.506362 7.95508 0.597405 6.57437C0.688449 5.19366 1.22337 3.87938 2.12239 2.82752C3.02141 1.77567 4.23637 1.0426 5.58605 0.737661C6.93574 0.432718 8.34783 0.572234 9.61175 1.1354C9.90602 1.26652 10.0383 1.61138 9.90717 1.90565C9.77604 2.19993 9.43119 2.33219 9.13692 2.20107Z" fill="#2972FE"/>
<path fill-rule="evenodd" clip-rule="evenodd" d="M13.2454 1.92065C13.4734 2.14834 13.4735 2.51769 13.2459 2.74561L7.41252 8.58477C7.30315 8.69426 7.15474 8.7558 6.99998 8.75583C6.84522 8.75587 6.69679 8.69441 6.58736 8.58498L4.83736 6.83498C4.60955 6.60717 4.60955 6.23783 4.83736 6.01002C5.06516 5.78222 5.43451 5.78222 5.66232 6.01002L6.99963 7.34734L12.4205 1.92106C12.6482 1.69314 13.0175 1.69296 13.2454 1.92065Z" fill="#2972FE"/>
</svg>
