<svg width="29" height="13" viewBox="0 0 29 13" fill="none" xmlns="http://www.w3.org/2000/svg">
<path fill-rule="evenodd" clip-rule="evenodd" d="M26.8266 7.22015C26.825 7.2218 26.8233 7.13766 26.8242 7.03454C26.8299 6.64103 26.8398 5.82432 26 4.97627C24.8261 3.78915 21.8579 2.37353 14.383 2.37435C6.94351 2.376 3.96954 3.77925 2.78655 4.96224L2.76923 4.97957C1.92942 5.82762 1.94097 6.64433 1.94509 7.03784C1.94674 7.15828 1.94344 7.25068 1.93767 7.31255C1.94262 8.96081 2.13731 9.99696 2.53576 10.3872C2.94412 10.784 3.92087 10.7592 5.27132 10.7254C5.70113 10.7147 6.16805 10.7031 6.67293 10.7031C7.97966 10.7015 8.1925 10.2659 8.65448 9.30235C9.29464 7.97086 10.1773 6.14771 14.3822 6.14853C18.5911 6.14688 19.4713 7.96921 20.1123 9.29987C20.5759 10.2618 20.7871 10.7007 22.0972 10.7007C22.6095 10.6998 23.0822 10.7122 23.5169 10.7229C24.8591 10.7567 25.8285 10.7823 26.2343 10.388L26.2409 10.3814C26.6361 9.98624 26.8275 8.95009 26.8275 7.21273C26.8275 7.21768 26.8275 7.21933 26.8266 7.22015ZM1.54827 3.72562C3.60406 1.66982 7.92107 0.626251 14.3821 0.624602C20.8688 0.623776 25.1965 1.67312 27.2441 3.74542C28.5978 5.11402 28.5813 6.5247 28.5747 7.05432C28.578 7.08567 28.5772 7.18054 28.5772 7.21354C28.578 9.58034 28.2588 10.8566 27.4561 11.6411C26.5222 12.5502 25.1767 12.5164 23.4732 12.4726C23.0516 12.4619 22.5938 12.4495 22.098 12.4504C19.6891 12.4504 19.0497 11.1247 18.5366 10.0605C17.9765 8.89975 17.4939 7.89743 14.3821 7.89743C11.2687 7.89908 10.7861 8.9014 10.2318 10.0613C9.71783 11.1263 9.08261 12.4512 6.67208 12.4528C6.18371 12.4528 5.73163 12.4644 5.3142 12.4743C3.60241 12.518 2.25031 12.5518 1.3148 11.6394C0.517069 10.8615 0.192862 9.58034 0.192036 7.21684L1.06979 7.04855L0.195336 7.05845C0.188737 6.52883 0.170589 5.11815 1.52517 3.74872L1.54827 3.72562Z" fill="white"/>
</svg>
