<svg width="28" height="28" viewBox="0 0 28 28" fill="none" xmlns="http://www.w3.org/2000/svg">
<g clip-path="url(#clip0_1097_30475)">
<path d="M16.2717 1.02517C15.9469 0.870241 15.5643 0.911307 15.2843 1.13717L6.2048 8.40038H1.86667C0.838133 8.40038 0 9.23851 0 10.267L0 17.7337C0 18.7622 0.838133 19.6004 1.86667 19.6004H6.2048L15.2824 26.8636C15.4523 26.998 15.6595 27.067 15.8667 27.067C16.0048 27.067 16.1429 27.0372 16.2717 26.9756C16.5947 26.8188 16.8 26.4921 16.8 26.1337V1.86704C16.8 1.50864 16.5947 1.18197 16.2717 1.02517ZM5.6 17.7337H1.86667L1.86667 10.267H5.6V17.7337ZM14.9333 24.1905L7.46667 18.2172V9.78358L14.9333 3.81024L14.9333 24.1905Z" fill="#717171"/>
<path d="M21.5264 7.39987C21.1587 7.03587 20.5688 7.04147 20.2067 7.40734C19.8446 7.77507 19.8483 8.36494 20.2142 8.72707C21.6235 10.1215 22.4 11.9937 22.4 14.0004C22.4 16.0071 21.6235 17.8793 20.2142 19.2737C19.8465 19.6359 19.8427 20.2257 20.2067 20.5935C20.3896 20.7783 20.6305 20.8697 20.8694 20.8697C21.1064 20.8697 21.3435 20.7801 21.5264 20.5991C23.2942 18.8537 24.2667 16.5111 24.2667 14.0004C24.2667 11.4897 23.2942 9.14707 21.5264 7.39987Z" fill="#717171"/>
<path d="M24.1583 4.76972C23.7924 4.40759 23.2007 4.40945 22.8386 4.77532C22.4764 5.14119 22.4783 5.73292 22.8442 6.09505C24.9647 8.19879 26.1332 11.0063 26.1332 14.0004C26.1332 16.9945 24.9647 19.802 22.8442 21.9057C22.4783 22.2679 22.4764 22.8596 22.8386 23.2255C23.0215 23.4103 23.2604 23.5017 23.5012 23.5017C23.7383 23.5017 23.9754 23.4121 24.1583 23.2311C26.6354 20.7745 27.9999 17.4967 27.9999 14.0004C27.9999 10.5041 26.6354 7.22625 24.1583 4.76972Z" fill="#717171"/>
</g>
<defs>
<clipPath id="clip0_1097_30475">
<rect width="28" height="28" fill="white"/>
</clipPath>
</defs>
</svg>
