<svg width="19" height="18" viewBox="0 0 19 18" fill="none" xmlns="http://www.w3.org/2000/svg">
<g clip-path="url(#clip0_951_29719)">
<path fill-rule="evenodd" clip-rule="evenodd" d="M10.1279 3.13953C10.1279 2.79275 9.84678 2.51163 9.5 2.51163C9.15322 2.51163 8.87209 2.79275 8.87209 3.13953V3.39747C8.59854 3.4661 8.3301 3.57333 8.07452 3.72089C5.79575 5.03653 6.08538 8.41303 8.5549 9.32138L8.87209 9.43806V13.3698C8.4243 13.2434 8.02421 12.9491 7.77372 12.5152L7.45929 11.9706C7.2859 11.6703 6.90188 11.5674 6.60156 11.7408C6.30123 11.9142 6.19833 12.2982 6.37173 12.5985L6.68615 13.1431C7.17044 13.982 7.98689 14.5085 8.87209 14.6541V14.8605C8.87209 15.2072 9.15322 15.4884 9.5 15.4884C9.84678 15.4884 10.1279 15.2072 10.1279 14.8605V14.6026C10.4015 14.534 10.67 14.4267 10.9257 14.2791C13.2044 12.9635 12.9148 9.58696 10.4453 8.67862L10.1279 8.5619L10.1279 4.6302C10.5758 4.75648 10.9759 5.05085 11.2265 5.48477L11.5409 6.02937C11.7143 6.3297 12.0983 6.43259 12.3986 6.2592C12.699 6.08581 12.8018 5.70179 12.6285 5.40146L12.314 4.85686C11.8297 4.01799 11.0132 3.49142 10.1279 3.3459V3.13953ZM8.70242 4.80846C8.75815 4.77628 8.81477 4.74736 8.87209 4.72163L8.87209 8.09577C7.50997 7.49423 7.38239 5.57057 8.70242 4.80846ZM10.2978 13.1916C10.242 13.2238 10.1853 13.2527 10.1279 13.2785V9.90416C11.4902 10.5056 11.6179 12.4294 10.2978 13.1916Z" fill="#DF4D6F"/>
<path fill-rule="evenodd" clip-rule="evenodd" d="M9.5 0C4.52944 0 0.5 4.02944 0.5 9C0.5 13.9706 4.52944 18 9.5 18C14.4706 18 18.5 13.9706 18.5 9C18.5 4.02944 14.4706 0 9.5 0ZM1.75581 9C1.75581 4.723 5.223 1.25581 9.5 1.25581C13.777 1.25581 17.2442 4.723 17.2442 9C17.2442 13.277 13.777 16.7442 9.5 16.7442C5.223 16.7442 1.75581 13.277 1.75581 9Z" fill="#DF4D6F"/>
</g>
<defs>
<clipPath id="clip0_951_29719">
<rect width="18" height="18" fill="white" transform="translate(0.5)"/>
</clipPath>
</defs>
</svg>
