<svg width="40" height="40" viewBox="0 0 40 40" fill="none" xmlns="http://www.w3.org/2000/svg">
<path fill-rule="evenodd" clip-rule="evenodd" d="M20 3C10.626 3 3 10.626 3 20C3 29.374 10.626 37 20 37C29.374 37 37 29.374 37 20C37 10.626 29.374 3 20 3ZM20 40C8.972 40 0 31.028 0 20C0 8.972 8.972 0 20 0C31.028 0 40 8.972 40 20C40 31.028 31.028 40 20 40Z" fill="#DF4D6F"/>
<path fill-rule="evenodd" clip-rule="evenodd" d="M26.8623 27.3844C26.6003 27.3844 26.3363 27.3164 26.0943 27.1744L18.5543 22.6764C18.1023 22.4044 17.8223 21.9144 17.8223 21.3864V11.6904C17.8223 10.8624 18.4943 10.1904 19.3223 10.1904C20.1523 10.1904 20.8223 10.8624 20.8223 11.6904V20.5344L27.6323 24.5944C28.3423 25.0204 28.5763 25.9404 28.1523 26.6524C27.8703 27.1224 27.3723 27.3844 26.8623 27.3844Z" fill="#DF4D6F"/>
</svg>
