<svg width="64" height="64" viewBox="0 0 64 64" fill="none" xmlns="http://www.w3.org/2000/svg">
<rect width="64" height="64" rx="32" fill="#DF4D6F"/>
<mask id="mask0_1094_30368" style="mask-type:alpha" maskUnits="userSpaceOnUse" x="14" y="14" width="35" height="35">
<path fill-rule="evenodd" clip-rule="evenodd" d="M48.2976 31.7988L31.3863 48.7101L14.4751 31.7989L31.3864 14.8876L48.2976 31.7988Z" fill="white"/>
</mask>
<g mask="url(#mask0_1094_30368)">
<path fill-rule="evenodd" clip-rule="evenodd" d="M43.8266 31.2202C43.825 31.2218 43.8233 31.1377 43.8242 31.0345C43.8299 30.641 43.8398 29.8243 43 28.9763C41.8261 27.7892 38.8579 26.3735 31.383 26.3744C23.9435 26.376 20.9695 27.7793 19.7866 28.9622L19.7692 28.9796C18.9294 29.8276 18.941 30.6443 18.9451 31.0378C18.9467 31.1583 18.9434 31.2507 18.9377 31.3125C18.9426 32.9608 19.1373 33.997 19.5358 34.3872C19.9441 34.784 20.9209 34.7592 22.2713 34.7254C22.7011 34.7147 23.1681 34.7031 23.6729 34.7031C24.9797 34.7015 25.1925 34.2659 25.6545 33.3023C26.2946 31.9709 27.1773 30.1477 31.3822 30.1485C35.5911 30.1469 36.4713 31.9692 37.1123 33.2999C37.5759 34.2618 37.7871 34.7007 39.0972 34.7007C39.6095 34.6998 40.0822 34.7122 40.5169 34.7229C41.8591 34.7567 42.8285 34.7823 43.2343 34.388L43.2409 34.3814C43.6361 33.9862 43.8275 32.9501 43.8275 31.2127C43.8275 31.2177 43.8275 31.2193 43.8266 31.2202ZM18.5483 27.7256C20.6041 25.6698 24.9211 24.6263 31.3821 24.6246C37.8688 24.6238 42.1965 25.6731 44.2441 27.7454C45.5978 29.114 45.5813 30.5247 45.5747 31.0543C45.578 31.0857 45.5772 31.1805 45.5772 31.2135C45.578 33.5803 45.2588 34.8566 44.4561 35.6411C43.5222 36.5502 42.1767 36.5164 40.4732 36.4726C40.0516 36.4619 39.5938 36.4495 39.098 36.4504C36.6891 36.4504 36.0497 35.1247 35.5366 34.0605C34.9765 32.8998 34.4939 31.8974 31.3821 31.8974C28.2687 31.8991 27.7861 32.9014 27.2318 34.0613C26.7178 35.1263 26.0826 36.4512 23.6721 36.4528C23.1837 36.4528 22.7316 36.4644 22.3142 36.4743C20.6024 36.518 19.2503 36.5518 18.3148 35.6394C17.5171 34.8615 17.1929 33.5803 17.192 31.2168L18.0698 31.0485L17.1953 31.0584C17.1887 30.5288 17.1706 29.1181 18.5252 27.7487L18.5483 27.7256Z" fill="white"/>
</g>
</svg>
