<svg width="92" height="92" viewBox="0 0 92 92" fill="none" xmlns="http://www.w3.org/2000/svg">
<g filter="url(#filter0_d_1094_30372)">
<rect x="14" y="10" width="64" height="64" rx="32" fill="white"/>
<path d="M55.1236 41.7085C55.1236 41.2252 54.7318 40.8335 54.2486 40.8335C53.7653 40.8335 53.3736 41.2252 53.3736 41.7085C53.4079 43.7249 52.6388 45.6721 51.236 47.1209C49.8331 48.5697 47.9117 49.4011 45.8952 49.4318C43.8788 49.4011 41.9573 48.5697 40.5545 47.1209C39.1516 45.6721 38.3826 43.7249 38.4169 41.7085C38.4169 41.2252 38.0251 40.8335 37.5419 40.8335C37.0586 40.8335 36.6669 41.2252 36.6669 41.7085C36.6404 46.5035 40.2517 50.5384 45.0202 51.0418V53.9585C45.0202 54.4417 45.412 54.8335 45.8952 54.8335C46.3785 54.8335 46.7702 54.4417 46.7702 53.9585V51.1352C51.5748 50.6285 55.1985 46.5391 55.1236 41.7085Z" fill="#717171"/>
<path fill-rule="evenodd" clip-rule="evenodd" d="M51.8334 42.0002C51.8334 45.2218 49.2217 47.8335 46.0001 47.8335C42.7784 47.8335 40.1667 45.2218 40.1667 42.0002V36.1668C40.1667 32.9452 42.7784 30.3335 46.0001 30.3335C49.2217 30.3335 51.8334 32.9452 51.8334 36.1668V42.0002ZM46.0001 32.0835C43.7449 32.0835 41.9167 33.9117 41.9167 36.1668V42.0002C41.9167 44.2553 43.7449 46.0835 46.0001 46.0835C48.2552 46.0835 50.0834 44.2553 50.0834 42.0002V36.1668C50.0834 33.9117 48.2552 32.0835 46.0001 32.0835Z" fill="#717171"/>
</g>
<defs>
<filter id="filter0_d_1094_30372" x="0" y="0" width="92" height="92" filterUnits="userSpaceOnUse" color-interpolation-filters="sRGB">
<feFlood flood-opacity="0" result="BackgroundImageFix"/>
<feColorMatrix in="SourceAlpha" type="matrix" values="0 0 0 0 0 0 0 0 0 0 0 0 0 0 0 0 0 0 127 0" result="hardAlpha"/>
<feOffset dy="4"/>
<feGaussianBlur stdDeviation="7"/>
<feComposite in2="hardAlpha" operator="out"/>
<feColorMatrix type="matrix" values="0 0 0 0 0.854902 0 0 0 0 0.854902 0 0 0 0 0.854902 0 0 0 1 0"/>
<feBlend mode="normal" in2="BackgroundImageFix" result="effect1_dropShadow_1094_30372"/>
<feBlend mode="normal" in="SourceGraphic" in2="effect1_dropShadow_1094_30372" result="shape"/>
</filter>
</defs>
</svg>
