<svg width="92" height="92" viewBox="0 0 92 92" fill="none" xmlns="http://www.w3.org/2000/svg">
<g filter="url(#filter0_d_1094_30446)">
<rect x="14" y="10" width="64" height="64" rx="32" fill="white"/>
<g clip-path="url(#clip0_1094_30446)">
<path d="M48.2717 29.0252C47.9469 28.8702 47.5643 28.9113 47.2843 29.1372L38.2048 36.4004H33.8667C32.8381 36.4004 32 37.2385 32 38.267V45.7337C32 46.7622 32.8381 47.6004 33.8667 47.6004H38.2048L47.2824 54.8636C47.4523 54.998 47.6595 55.067 47.8667 55.067C48.0048 55.067 48.1429 55.0372 48.2717 54.9756C48.5947 54.8188 48.8 54.4921 48.8 54.1337V29.867C48.8 29.5086 48.5947 29.182 48.2717 29.0252ZM37.6 45.7337H33.8667V38.267H37.6V45.7337ZM46.9333 52.1905L39.4667 46.2172V37.7836L46.9333 31.8102V52.1905Z" fill="#717171"/>
<path d="M53.5264 35.3999C53.1587 35.0359 52.5688 35.0415 52.2067 35.4073C51.8446 35.7751 51.8483 36.3649 52.2142 36.7271C53.6235 38.1215 54.4 39.9937 54.4 42.0004C54.4 44.0071 53.6235 45.8793 52.2142 47.2737C51.8465 47.6359 51.8427 48.2257 52.2067 48.5935C52.3896 48.7783 52.6305 48.8697 52.8694 48.8697C53.1064 48.8697 53.3435 48.7801 53.5264 48.5991C55.2942 46.8537 56.2667 44.5111 56.2667 42.0004C56.2667 39.4897 55.2942 37.1471 53.5264 35.3999Z" fill="#717171"/>
<path d="M56.1583 32.7697C55.7924 32.4076 55.2007 32.4095 54.8386 32.7753C54.4764 33.1412 54.4783 33.7329 54.8442 34.0951C56.9647 36.1988 58.1332 39.0063 58.1332 42.0004C58.1332 44.9945 56.9647 47.802 54.8442 49.9057C54.4783 50.2679 54.4764 50.8596 54.8386 51.2255C55.0215 51.4103 55.2604 51.5017 55.5012 51.5017C55.7383 51.5017 55.9754 51.4121 56.1583 51.2311C58.6354 48.7745 59.9999 45.4967 59.9999 42.0004C59.9999 38.5041 58.6354 35.2263 56.1583 32.7697Z" fill="#717171"/>
</g>
</g>
<defs>
<filter id="filter0_d_1094_30446" x="0" y="0" width="92" height="92" filterUnits="userSpaceOnUse" color-interpolation-filters="sRGB">
<feFlood flood-opacity="0" result="BackgroundImageFix"/>
<feColorMatrix in="SourceAlpha" type="matrix" values="0 0 0 0 0 0 0 0 0 0 0 0 0 0 0 0 0 0 127 0" result="hardAlpha"/>
<feOffset dy="4"/>
<feGaussianBlur stdDeviation="7"/>
<feComposite in2="hardAlpha" operator="out"/>
<feColorMatrix type="matrix" values="0 0 0 0 0.854902 0 0 0 0 0.854902 0 0 0 0 0.854902 0 0 0 1 0"/>
<feBlend mode="normal" in2="BackgroundImageFix" result="effect1_dropShadow_1094_30446"/>
<feBlend mode="normal" in="SourceGraphic" in2="effect1_dropShadow_1094_30446" result="shape"/>
</filter>
<clipPath id="clip0_1094_30446">
<rect width="28" height="28" fill="white" transform="translate(32 28)"/>
</clipPath>
</defs>
</svg>
