<svg width="92" height="92" viewBox="0 0 92 92" fill="none" xmlns="http://www.w3.org/2000/svg">
<g filter="url(#filter0_d_411_21113)">
<rect x="14" y="10" width="64" height="64" rx="32" fill="white"/>
<mask id="mask0_411_21113" style="mask-type:alpha" maskUnits="userSpaceOnUse" x="34" y="33" width="19" height="19">
<path fill-rule="evenodd" clip-rule="evenodd" d="M34.3335 33.8335H52.4172V51.9184H34.3335V33.8335Z" fill="white"/>
</mask>
<g mask="url(#mask0_411_21113)">
<path fill-rule="evenodd" clip-rule="evenodd" d="M39.9885 35.5851C39.4763 35.5851 39.1461 35.5851 39.089 35.5874C38.228 35.6236 37.4335 35.9887 36.8606 36.6141C36.3263 37.1986 36.051 37.9452 36.0871 38.7199C36.0871 42.0951 36.0883 47.1607 36.0965 47.4384C36.2295 49.0542 37.7438 50.2897 39.4775 50.1567C42.6858 50.1614 47.4388 50.1719 47.6616 50.1637C48.5191 50.1287 49.3148 49.7647 49.8876 49.1406C50.4231 48.5584 50.6985 47.8117 50.6646 47.0406C50.6635 47.0277 50.6635 47.0149 50.6635 47.0021C50.6646 43.6654 50.6646 38.6032 50.6565 38.3314C50.5246 36.7074 49.0033 35.4567 47.2603 35.5932C44.85 35.5897 41.5611 35.5851 39.9885 35.5851ZM39.1706 51.9184C36.7043 51.9196 34.553 50.0296 34.35 47.5504C34.3465 47.5026 34.3348 47.3567 34.3383 38.7596C34.2823 37.5567 34.7186 36.3621 35.5703 35.4322C36.4593 34.4616 37.6855 33.8957 39.0236 33.8386C39.1858 33.8269 44.7951 33.8409 47.1973 33.8456C49.8223 33.6612 52.1918 35.6096 52.403 38.2241C52.4123 38.3512 52.4158 41.2971 52.4135 46.9846C52.4625 48.2166 52.0238 49.4031 51.1768 50.3247C50.2866 51.2942 49.0593 51.8577 47.7223 51.9126C47.559 51.9242 41.9473 51.9091 39.5416 51.9044C39.418 51.9137 39.2943 51.9184 39.1706 51.9184Z" fill="#717171"/>
</g>
<path fill-rule="evenodd" clip-rule="evenodd" d="M56.2881 49.4074C55.7619 49.4074 55.2428 49.2265 54.8146 48.8754L50.9868 45.73C50.6134 45.4232 50.5598 44.8714 50.8666 44.498C51.1723 44.1259 51.7241 44.0699 52.0974 44.3779L55.9241 47.5232C56.1819 47.7332 56.4409 47.6469 56.5413 47.5979C56.6416 47.5512 56.8738 47.4054 56.8738 47.074L56.8878 38.5002C56.8889 38.1689 56.6556 38.023 56.5553 37.9752C56.4561 37.9285 56.1936 37.841 55.9381 38.051L52.0963 41.1952C51.7206 41.502 51.1711 41.4472 50.8654 41.0715C50.5586 40.6982 50.6146 40.1475 50.9879 39.8419L54.8298 36.6965C55.5344 36.119 56.4829 36.0059 57.3054 36.3944C58.1279 36.7852 58.6389 37.5925 58.6378 38.5025L58.6238 47.0764C58.6226 47.9864 58.1104 48.7937 57.2891 49.181C56.9671 49.3339 56.6264 49.4074 56.2881 49.4074Z" fill="#717171"/>
<line x1="54.5874" y1="33.4091" x2="33.4091" y2="51.2609" stroke="#717171" stroke-width="2" stroke-linecap="round"/>
</g>
<defs>
<filter id="filter0_d_411_21113" x="0" y="0" width="92" height="92" filterUnits="userSpaceOnUse" color-interpolation-filters="sRGB">
<feFlood flood-opacity="0" result="BackgroundImageFix"/>
<feColorMatrix in="SourceAlpha" type="matrix" values="0 0 0 0 0 0 0 0 0 0 0 0 0 0 0 0 0 0 127 0" result="hardAlpha"/>
<feOffset dy="4"/>
<feGaussianBlur stdDeviation="7"/>
<feComposite in2="hardAlpha" operator="out"/>
<feColorMatrix type="matrix" values="0 0 0 0 0.854902 0 0 0 0 0.854902 0 0 0 0 0.854902 0 0 0 1 0"/>
<feBlend mode="normal" in2="BackgroundImageFix" result="effect1_dropShadow_411_21113"/>
<feBlend mode="normal" in="SourceGraphic" in2="effect1_dropShadow_411_21113" result="shape"/>
</filter>
</defs>
</svg>
